<svg xmlns="http://www.w3.org/2000/svg" xmlns:xlink="http://www.w3.org/1999/xlink" width="20" height="20"><defs><path id="a" d="M9.834 19.686h9.833V0H0v19.686z"/></defs><g fill="none" fill-rule="evenodd"><mask id="b" fill="#fff"><use xlink:href="#a"/></mask><path fill="#000" fill-opacity=".4" d="M7.468 2.888a4.593 4.593 0 0 1 4.585 4.59 4.593 4.593 0 0 1-4.585 4.591 4.593 4.593 0 0 1-4.584-4.59 4.593 4.593 0 0 1 4.584-4.591m11.978 14.444l-5.741-5.75a7.44 7.44 0 0 0 1.231-4.104C14.936 3.355 11.586 0 7.468 0S0 3.354 0 7.478s3.35 7.48 7.468 7.48a7.404 7.404 0 0 0 4.109-1.24l5.74 5.747a.75.75 0 0 0 1.065 0l1.065-1.067a.755.755 0 0 0 0-1.066" mask="url(#b)"/></g></svg>